# xmcd
#
# Track frame offsets: 
#        150
#        19592
#        37659
#        53683
#        72008
#        94366
#        113925
#        126670
#        146246
#        163902
#        182604
#        198252
#        215702
#        245221
#        261963
#        279717
#        300933
#        319102
#
# Disc length: 4541 seconds
#
# Revision: 4
# Processed by: cddbd v1.5.2PL0 Copyright (c) Steve Scherf et al.
# Submitted via: ExactAudioCopy v1.3
#
DISCID=1111bb12
DTITLE=Mattafix - Signs Of A Struggle
DYEAR=2006
DGENRE=Trip-Hop
TTITLE0=Gangster Blues
TTITLE1=Big City Life
TTITLE2=Passer By
TTITLE3=To and Fro
TTITLE4=Everyone Around You
TTITLE5=Clear And Present Danger
TTITLE6=Older
TTITLE7=I To You
TTITLE8=Impartial
TTITLE9=The Means
TTITLE10=11.30
TTITLE11=The Forgotten
TTITLE12=555
TTITLE13=Cool Down The Pace
TTITLE14=Big City Life (Sly and Robbie Remix)
TTITLE15=To and Fro (Desert Eagle Discs Remix)
TTITLE16=Cool Down The Pace (Femi Fem's Funkateriamix)
TTITLE17=Big City Life (Live Gurten Festival Acoustic)
EXTD=
EXTT0=
EXTT1=
EXTT2=
EXTT3=
EXTT4=
EXTT5=
EXTT6=
EXTT7=
EXTT8=
EXTT9=
EXTT10=
EXTT11=
EXTT12=
EXTT13=
EXTT14=
EXTT15=
EXTT16=
EXTT17=
PLAYORDER=
